<svg xmlns="http://www.w3.org/2000/svg" viewBox="0 0 364.11 342.83"><defs><style>.cls-1,.cls-2,.cls-3,.cls-5,.cls-6,.cls-7{fill:none;stroke-miterlimit:10;}.cls-1,.cls-6,.cls-7{stroke:#fff;}.cls-1,.cls-2,.cls-3{stroke-width:23px;}.cls-2{stroke:#141414;}.cls-3,.cls-5{stroke:#ff7193;}.cls-4{fill:#80baff;}.cls-5{stroke-width:15px;}.cls-6{stroke-width:24px;}.cls-6,.cls-9{opacity:0.44;}.cls-8,.cls-9{fill:#fff;}</style></defs><g id="Layer_2" data-name="Layer 2"><g id="Layer_1-2" data-name="Layer 1"><circle class="cls-1" cx="164.75" cy="186.88" r="45.75"/><circle class="cls-2" cx="165.2" cy="187.26" r="31.3"/><circle class="cls-3" cx="165.19" cy="181.71" r="31.3"/><rect class="cls-4" x="37" y="30.13" width="36" height="36" rx="18"/><path class="cls-5" d="M51.09,333.93h0A24.27,24.27,0,0,1,45,300.14h0a24.27,24.27,0,0,1,33.79-6.06h0"/><path class="cls-6" d="M353.52,34h0a30.15,30.15,0,0,1-40.78,12.42h0A30.15,30.15,0,0,1,300.32,5.64h0"/><rect class="cls-7" x="27.85" y="44.12" width="26.29" height="26.29" rx="13.15" transform="translate(52.5 -12.22) rotate(45)"/><circle class="cls-7" cx="287" cy="271.13" r="11.5"/><circle class="cls-8" cx="269.5" cy="84.63" r="5.5"/><circle class="cls-8" cx="110.5" cy="295.63" r="5.5"/><circle class="cls-8" cx="8" cy="221.13" r="8"/><path class="cls-4" d="M346.14,195.41h0a17.18,17.18,0,0,1-19.94-13.89h0a17.17,17.17,0,0,1,13.88-19.94h0"/><circle class="cls-7" cx="180.5" cy="34.63" r="7"/><rect class="cls-4" x="180" y="295.13" width="45" height="45" rx="15.71" transform="translate(-148.31 180.42) rotate(-36.12)"/><rect class="cls-9" x="23" y="142.13" width="27" height="27" rx="8.32" transform="translate(177.9 81.08) rotate(75.4)"/></g></g></svg>