<?xml version="1.0" encoding="UTF-8"?><svg id="Layer_2" xmlns="http://www.w3.org/2000/svg" viewBox="0 0 105.37 80.33"><defs><style>.cls-1{fill:#fff;}.cls-1,.cls-2,.cls-3,.cls-4,.cls-5,.cls-6,.cls-7,.cls-8,.cls-9,.cls-10{stroke:#050505;stroke-miterlimit:10;}.cls-2{opacity:.1;}.cls-2,.cls-6,.cls-7,.cls-8,.cls-9{fill:#48a8ff;}.cls-3{fill:#ff4aff;}.cls-4{fill:#333b99;}.cls-5{fill:#d245ff;}.cls-7{opacity:.15;}.cls-8{opacity:.3;}.cls-9{opacity:.2;}.cls-10{fill:#4659e0;}</style></defs><g id="Layer_1-2"><g><path class="cls-4" d="M84.57,78.56s-7.3-30.26-31.39-18.98S9.19,56.39,.97,44.7c-1.29-1.84,84.73,2.36,85.02,2.9l1.68,17.45-3.1,13.51"/><path class="cls-1" d="M104.86,39.96s-3.84-29.26-23.79-27.52c-19.95,1.74-42.63,19.16-57.6-5.45L.65,44.4s33.15,27.29,57.16,12.96c24.01-14.33,26.76,21.2,26.76,21.2l20.29-38.6Z"/></g><circle class="cls-5" cx="46.67" cy="4" r="3.5"/><line class="cls-2" x1="27.52" y1="30.21" x2="18.19" y2="48.64"/><circle class="cls-6" cx="94.14" cy="30.55" r="2"/><rect class="cls-10" x="21.58" y="34.64" width="5" height="5" transform="translate(62.42 15.03) rotate(92.98)"/><circle class="cls-3" cx="97.8" cy="68.97" r="2"/><line class="cls-8" x1="26.52" y1="16.21" x2="10.85" y2="44.24"/><line class="cls-8" x1="42.19" y1="22.95" x2="26.52" y2="50.97"/><line class="cls-8" x1="39.52" y1="43.21" x2="34.52" y2="52.97"/><line class="cls-9" x1="55.52" y1="29.21" x2="42.52" y2="54.34"/><line class="cls-8" x1="67.19" y1="25.15" x2="54.19" y2="50.28"/><line class="cls-8" x1="99.08" y1="35.7" x2="86.08" y2="60.83"/><line class="cls-7" x1="86.52" y1="42.21" x2="81.08" y2="52.83"/></g></svg>