<?xml version="1.0" encoding="UTF-8"?><svg id="Layer_2" xmlns="http://www.w3.org/2000/svg" viewBox="0 0 366.75 333.88"><defs><style>.cls-1,.cls-2{stroke-width:23px;}.cls-1,.cls-2,.cls-3,.cls-4,.cls-5,.cls-6,.cls-7{fill:none;stroke-miterlimit:10;}.cls-1,.cls-3,.cls-4{stroke:#fff;}.cls-8,.cls-9{fill:#fff;}.cls-2{stroke:#070707;}.cls-4{stroke-width:24px;}.cls-4,.cls-9{opacity:.44;}.cls-5{stroke:#80baff;}.cls-10{fill:#80baff;}.cls-6{stroke:#6d6d6d;}.cls-6,.cls-7{stroke-width:15px;}.cls-7{stroke:#ff7193;}</style></defs><g id="Layer_1-2"><g><circle class="cls-1" cx="167.4" cy="200.13" r="45.75"/><rect class="cls-10" x="9.65" y="13.38" width="36" height="36" rx="18" ry="18"/><path class="cls-7" d="M276.73,322.18h0c-11-7.66-13.71-22.79-6.06-33.79h0c7.66-11,22.79-13.71,33.79-6.06h0"/><path class="cls-4" d="M356.16,47.25h0c-7.83,14.69-26.08,20.25-40.77,12.42h0c-14.69-7.83-20.25-26.08-12.42-40.77h0"/><rect class="cls-3" x=".5" y="27.37" width="26.29" height="26.29" rx="13.15" ry="13.15" transform="translate(32.65 2.22) rotate(45)"/><circle class="cls-3" cx="283.65" cy="269.38" r="11.5"/><circle class="cls-8" cx="272.15" cy="97.88" r="5.5"/><circle class="cls-8" cx="113.15" cy="308.88" r="5.5"/><circle class="cls-8" cx="10.65" cy="234.38" r="8"/><path class="cls-10" d="M38.62,138.73h0c7.23-6.15,18.08-5.27,24.22,1.96h0c6.15,7.23,5.27,18.08-1.96,24.22h0"/><circle class="cls-3" cx="183.15" cy="47.88" r="7"/><rect class="cls-6" x="27.65" y="281.38" width="45" height="45" rx="22.5" ry="22.5" transform="translate(-169.49 87.97) rotate(-36.12)"/><rect class="cls-9" x="310.65" y="175.38" width="27" height="27" rx="8.32" ry="8.32" transform="translate(425.22 -172.41) rotate(75.4)"/><circle class="cls-5" cx="330.48" cy="31.8" r="31.3"/><circle class="cls-2" cx="167.48" cy="191.8" r="45.75"/><circle class="cls-7" cx="136.49" cy="92.35" r="12.53"/></g></g></svg>